<svg xmlns="http://www.w3.org/2000/svg" xmlns:xlink="http://www.w3.org/1999/xlink" version="1.1" style="" xml:space="preserve" width="71.72" height="122.88"><rect id="backgroundrect" width="100%" height="100%" x="0" y="0" fill="none" stroke="none"/><g class="currentLayer" style=""><title>Layer 1</title><g id="svg_1" class="selected" fill="#ffffff" fill-opacity="1"><path d="M35.31,14C45.55,17.74,54,23.12,60.2,30.69c6.56,8.01,10.58,18.4,11.51,31.81l0,0.14h0v52.62c0,2.1-0.86,4.01-2.24,5.39 c-1.38,1.37-3.27,2.23-5.34,2.23H7.61c-2.07,0-3.96-0.85-5.34-2.23c-1.38-1.38-2.24-3.29-2.24-5.39V52.2l0-0.12 c-0.22-8.7,0.67-16.37,2.97-22.79c2.31-6.44,6.01-11.63,11.38-15.35V1.55c0-0.85,0.7-1.55,1.55-1.55h17.82 c0.85,0,1.55,0.7,1.55,1.55V14L35.31,14z M14.13,79.14h43.45c1.67,0,3.03,1.36,3.03,3.03v24.5c0,1.67-1.36,3.03-3.03,3.03H14.13 c-1.67,0-3.03-1.36-3.03-3.03v-24.5C11.1,80.51,12.47,79.14,14.13,79.14L14.13,79.14z M56.14,60.7c-3,2.15-7.35,2.19-11.95,0.51 c-4.23-1.55-8.75-4.58-12.57-8.73c-1.02-1.11-1.93-2.23-2.73-3.35c-2.54-3.55-4.1-7.21-4.55-10.42c-0.49-3.48,0.3-6.52,2.49-8.53 c0.22-0.2,0.47-0.4,0.75-0.6c3-2.15,7.35-2.19,11.95-0.51c4.23,1.55,8.75,4.58,12.57,8.73c1.02,1.11,1.93,2.23,2.73,3.35 c2.54,3.55,4.1,7.21,4.55,10.42c0.49,3.48-0.3,6.52-2.49,8.53C56.67,60.3,56.42,60.5,56.14,60.7L56.14,60.7z M45.61,57.93 c3.27,1.19,6.2,1.28,8.01-0.01c0.13-0.09,0.25-0.2,0.39-0.32c1.32-1.21,1.77-3.24,1.43-5.68c-0.38-2.71-1.72-5.83-3.94-8.93 c-0.73-1.02-1.55-2.03-2.44-3c-3.37-3.67-7.31-6.33-10.95-7.66c-3.27-1.19-6.2-1.28-8.01,0.01c-0.13,0.09-0.25,0.2-0.39,0.32 c-1.32,1.21-1.77,3.24-1.43,5.68c0.38,2.71,1.72,5.83,3.94,8.93c0.73,1.02,1.55,2.03,2.44,3C38.04,53.95,41.98,56.6,45.61,57.93 L45.61,57.93z M57.22,33.24c-5.99-7.32-14.33-12.45-24.53-15.97h-16.2c-4.61,3.23-7.81,7.74-9.83,13.37 c-2.13,5.94-2.96,13.13-2.75,21.34c0.01,0.07,0.01,0.15,0.01,0.22v63.06c0,1,0.41,1.9,1.07,2.56c0.67,0.67,1.59,1.08,2.61,1.08 h56.54c1.02,0,1.95-0.41,2.61-1.08c0.66-0.66,1.07-1.57,1.07-2.56V62.67C66.94,50.21,63.24,40.59,57.22,33.24L57.22,33.24z" id="svg_2" fill="#ffffff" fill-opacity="1"/></g></g></svg>