<svg xmlns="http://www.w3.org/2000/svg" xmlns:xlink="http://www.w3.org/1999/xlink" version="1.1" style="enable-background:new 0 0 123.38 114.96" xml:space="preserve" width="123.38" height="114.96"><rect id="backgroundrect" width="100%" height="100%" x="0" y="0" fill="none" stroke="none"/><style type="text/css">.st0{fill-rule:evenodd;clip-rule:evenodd;stroke:#000000;stroke-width:0.5;stroke-miterlimit:2.6131;}</style><g class="currentLayer" style=""><title>Layer 1</title><g id="svg_1" class="selected" fill="#ffffff" fill-opacity="1"><path class="st0" d="M40.78577469825745,50.31 h7.25 V35.72 c0,-2.07 1.6900000000000004,-3.7600000000000002 3.7600000000000002,-3.7600000000000002 l0,0 c2.07,0 3.7600000000000002,1.6900000000000004 3.7600000000000002,3.7600000000000002 v14.59 h11.05 V35.72 c0,-2.07 1.6900000000000004,-3.7600000000000002 3.7600000000000002,-3.7600000000000002 l0,0 c2.07,0 3.7600000000000002,1.6900000000000004 3.7600000000000002,3.7600000000000002 v14.59 h7.06 c1.31,0 2.38,1.07 2.38,2.38 v2.7600000000000002 c0,1.31 -1.07,2.38 -2.38,2.38 h-40.4 c-1.31,0 -2.38,-1.07 -2.38,-2.38 v-2.7600000000000002 C38.405774698257446,51.38 39.475774698257446,50.31 40.78577469825745,50.31 L40.78577469825745,50.31 zM51.155774698257446,59.96 h20.04 v2.98 H51.155774698257446 V59.96 L51.155774698257446,59.96 zM33.415774698257444,106.63 c2.05,1.26 2.6900000000000004,3.95 1.4300000000000002,6 c-1.26,2.05 -3.95,2.6900000000000004 -6,1.4300000000000002 c-8.93,-5.49 -16.36,-13.23 -21.51,-22.43 c-4.96,-8.870000000000001 -7.79,-19.09 -7.79,-29.94 c0,-16.97 6.88,-32.33 18,-43.44 c11.12,-11.12 26.48,-18 43.44,-18 c16.97,0 32.35,6.8100000000000005 43.48,17.86 c11.1,11.03 17.96,26.28 17.96,43.21 c0,21.97 -12.27,37.39 -26.04,44.32 c-5.09,2.5700000000000003 -10.43,3.98 -15.48,4.17 c-5.28,0.19000000000000006 -10.28,-0.97 -14.42,-3.58 c-7.25,-4.57 -11.72,-13.27 -10.35,-26.52 c-9.37,-1.49 -13.48,-6.43 -13.48,-16.09 l0,-5.76 h37.06 v5.19 c0,9.78 -4.59,15.77 -14.77,16.75 l-0.05000000000000002,0 c-1.21,9.93 1.55,16.12 6.22,19.06 c2.62,1.6500000000000004 5.91,2.38 9.47,2.25 c3.8,-0.14 7.8900000000000015,-1.24 11.870000000000001,-3.24 c11.23,-5.65 21.23,-18.34 21.23,-36.55 c0,-14.53 -5.87,-27.6 -15.37,-37.04 C88.78577469825744,14.81 75.58577469825745,8.98 60.985774698257444,8.98 c-14.56,0 -27.73,5.9 -37.27,15.44 C14.175774698257449,33.96 8.275774698257447,47.13 8.275774698257447,61.69 c0,9.35 2.42,18.12 6.67,25.71 C19.345774698257447,95.27 25.725774698257446,101.9 33.415774698257444,106.63 L33.415774698257444,106.63 z" id="svg_2" fill="#ffffff" fill-opacity="1"/></g></g></svg>